<svg width="105" height="105" viewBox="0 0 105 105" fill="none" xmlns="http://www.w3.org/2000/svg">
<rect width="105" height="105" rx="52.5" fill="#D62828" fill-opacity="0.1"/>
<path d="M47.3 48.6002C51.9668 48.6002 55.75 44.817 55.75 40.1502C55.75 35.4834 51.9668 31.7002 47.3 31.7002C42.6332 31.7002 38.85 35.4834 38.85 40.1502C38.85 44.817 42.6332 48.6002 47.3 48.6002Z" fill="#D62828" fill-opacity="0.39"/>
<path d="M35.4376 73.3004H29.1001C28.9277 73.3004 28.7624 73.2319 28.6405 73.11C28.5186 72.9881 28.4501 72.8228 28.4501 72.6504V40.1504C28.4501 39.978 28.5186 39.8127 28.6405 39.6908C28.7624 39.5689 28.9277 39.5004 29.1001 39.5004H35.6001V40.8004H29.7501V72.0004H35.4376V73.3004Z" fill="#D62828"/>
<path d="M39.5001 77.2003C38.6002 77.2003 37.7205 76.9335 36.9722 76.4335C36.224 75.9335 35.6408 75.2229 35.2964 74.3915C34.952 73.5601 34.8619 72.6453 35.0375 71.7627C35.2131 70.8801 35.6464 70.0693 36.2827 69.433C36.9191 68.7967 37.7298 68.3633 38.6124 68.1878C39.495 68.0122 40.4099 68.1023 41.2413 68.4467C42.0727 68.7911 42.7833 69.3742 43.2833 70.1225C43.7832 70.8707 44.0501 71.7504 44.0501 72.6503C44.0501 73.8571 43.5707 75.0144 42.7174 75.8677C41.8641 76.7209 40.7068 77.2003 39.5001 77.2003ZM39.5001 69.4003C38.8573 69.4003 38.2289 69.5909 37.6945 69.948C37.16 70.3052 36.7434 70.8127 36.4975 71.4066C36.2515 72.0005 36.1871 72.6539 36.3125 73.2844C36.4379 73.9148 36.7475 74.4939 37.202 74.9484C37.6565 75.4029 38.2356 75.7125 38.866 75.8379C39.4965 75.9633 40.1499 75.8989 40.7438 75.6529C41.3376 75.4069 41.8452 74.9904 42.2023 74.4559C42.5595 73.9215 42.7501 73.2931 42.7501 72.6503C42.7501 71.7884 42.4077 70.9617 41.7982 70.3522C41.1887 69.7427 40.362 69.4003 39.5001 69.4003Z" fill="#D62828"/>
<path d="M47.3001 52.5002C44.8575 52.5002 42.4697 51.7759 40.4388 50.4188C38.4078 49.0618 36.8249 47.133 35.8902 44.8763C34.9554 42.6196 34.7109 40.1365 35.1874 37.7408C35.6639 35.3451 36.8401 33.1446 38.5673 31.4174C40.2945 29.6902 42.495 28.514 44.8907 28.0375C47.2864 27.5609 49.7696 27.8055 52.0262 28.7403C54.2829 29.675 56.2117 31.2579 57.5687 33.2889C58.9258 35.3198 59.6501 37.7076 59.6501 40.1502C59.6501 43.4256 58.3489 46.5669 56.0328 48.8829C53.7168 51.199 50.5755 52.5002 47.3001 52.5002ZM47.3001 29.1002C45.1146 29.1002 42.9782 29.7482 41.161 30.9624C39.3439 32.1766 37.9276 33.9024 37.0912 35.9215C36.2549 37.9406 36.036 40.1624 36.4624 42.3059C36.8888 44.4494 37.9412 46.4183 39.4865 47.9637C41.0319 49.5091 43.0008 50.5615 45.1443 50.9878C47.2878 51.4142 49.5096 51.1954 51.5287 50.359C53.5479 49.5227 55.2736 48.1064 56.4878 46.2892C57.702 44.4721 58.3501 42.3357 58.3501 40.1502C58.3501 37.2195 57.1859 34.4089 55.1136 32.3366C53.0413 30.2644 50.2307 29.1002 47.3001 29.1002Z" fill="#D62828"/>
<path d="M33.65 57.0498H23.25V58.3498H33.65V57.0498Z" fill="#D62828"/>
<path d="M70.0501 72.0004H65.5001V73.3004H70.0501V72.0004Z" fill="#D62828"/>
<path d="M83.7001 73.3001H77.8501V72.0001H83.0501V62.4386L76.1991 51.8501H65.5001V50.5501H76.5501C76.6589 50.5503 76.7659 50.5778 76.8612 50.63C76.9566 50.6823 77.0374 50.7576 77.0961 50.8491L84.2461 61.8991C84.3137 62.0038 84.3498 62.1256 84.3501 62.2501V72.6501C84.3501 72.8225 84.2816 72.9879 84.1597 73.1098C84.0378 73.2317 83.8725 73.3001 83.7001 73.3001Z" fill="#D62828"/>
<path d="M65.4999 73.3004H43.5624V72.0004H64.8499V40.8004H58.9999V39.5004H65.4999C65.6723 39.5004 65.8376 39.5689 65.9595 39.6908C66.0814 39.8127 66.1499 39.978 66.1499 40.1504V72.6504C66.1499 72.8228 66.0814 72.9881 65.9595 73.11C65.8376 73.2319 65.6723 73.3004 65.4999 73.3004Z" fill="#D62828"/>
<path d="M73.9499 77.2003C73.05 77.2003 72.1703 76.9335 71.4221 76.4335C70.6738 75.9335 70.0906 75.2229 69.7463 74.3915C69.4019 73.5601 69.3118 72.6453 69.4873 71.7627C69.6629 70.8801 70.0962 70.0693 70.7326 69.433C71.3689 68.7967 72.1796 68.3633 73.0622 68.1878C73.9449 68.0122 74.8597 68.1023 75.6911 68.4467C76.5225 68.7911 77.2331 69.3742 77.7331 70.1225C78.233 70.8707 78.4999 71.7504 78.4999 72.6503C78.4999 73.8571 78.0205 75.0144 77.1672 75.8677C76.3139 76.7209 75.1566 77.2003 73.9499 77.2003ZM73.9499 69.4003C73.3071 69.4003 72.6788 69.5909 72.1443 69.948C71.6098 70.3052 71.1933 70.8127 70.9473 71.4066C70.7013 72.0005 70.6369 72.6539 70.7624 73.2844C70.8878 73.9148 71.1973 74.4939 71.6518 74.9484C72.1063 75.4029 72.6854 75.7125 73.3159 75.8379C73.9463 75.9633 74.5998 75.8989 75.1936 75.6529C75.7875 75.4069 76.2951 74.9904 76.6522 74.4559C77.0093 73.9215 77.1999 73.2931 77.1999 72.6503C77.1999 71.7884 76.8575 70.9617 76.248 70.3522C75.6385 69.7427 74.8119 69.4003 73.9499 69.4003Z" fill="#D62828"/>
<path d="M79.1499 62.9004H70.0499C69.8775 62.9004 69.7122 62.832 69.5903 62.7101C69.4684 62.5882 69.3999 62.4228 69.3999 62.2504V55.7504C69.3999 55.578 69.4684 55.4127 69.5903 55.2908C69.7122 55.1689 69.8775 55.1004 70.0499 55.1004H75.2499C75.3627 55.1005 75.4736 55.1298 75.5716 55.1857C75.6696 55.2415 75.7514 55.3219 75.8089 55.4189L79.7089 61.9189C79.7674 62.0176 79.7988 62.13 79.7998 62.2448C79.8008 62.3595 79.7714 62.4724 79.7146 62.5721C79.6578 62.6718 79.5757 62.7547 79.4765 62.8124C79.3773 62.87 79.2646 62.9004 79.1499 62.9004ZM70.6999 61.6004H77.9994L74.8794 56.4004H70.6999V61.6004Z" fill="#D62828"/>
<path d="M51.1999 41.1374H47.2999C47.1275 41.1374 46.9622 41.0689 46.8403 40.947C46.7184 40.8251 46.6499 40.6597 46.6499 40.4874V34.6374H47.9499V39.8374H51.1999V41.1374Z" fill="#D62828"/>
<path d="M33.6499 50.5501H20.6499V51.8501H33.6499V50.5501Z" fill="#D62828"/>
<path d="M33.65 44.0502H23.25V45.3502H33.65V44.0502Z" fill="#D62828"/>
</svg>
